<svg width="811" height="46" viewBox="0 0 811 46" fill="none" xmlns="http://www.w3.org/2000/svg">
<path d="M11.446 1.476V45H0.844V1.476H11.446ZM68.4192 1.476V45H57.8172V18.898L48.0832 45H39.5272L29.7312 18.836V45H19.1292V1.476H31.6532L43.8672 31.608L55.9572 1.476H68.4192ZM103.137 37.312H86.8932L84.2892 45H73.1912L88.9392 1.476H101.215L116.963 45H105.741L103.137 37.312ZM100.409 29.128L95.0152 13.194L89.6832 29.128H100.409ZM150.648 15.24C149.863 13.7933 148.726 12.698 147.238 11.954C145.791 11.1687 144.076 10.776 142.092 10.776C138.661 10.776 135.913 11.9127 133.846 14.186C131.779 16.418 130.746 19.4147 130.746 23.176C130.746 27.1853 131.821 30.3267 133.97 32.6C136.161 34.832 139.157 35.948 142.96 35.948C145.564 35.948 147.755 35.2867 149.532 33.964C151.351 32.6413 152.673 30.74 153.5 28.26H140.046V20.448H163.11V30.306C162.325 32.9513 160.981 35.4107 159.08 37.684C157.22 39.9573 154.843 41.7967 151.95 43.202C149.057 44.6073 145.791 45.31 142.154 45.31C137.855 45.31 134.011 44.38 130.622 42.52C127.274 40.6187 124.649 37.994 122.748 34.646C120.888 31.298 119.958 27.4747 119.958 23.176C119.958 18.8773 120.888 15.054 122.748 11.706C124.649 8.31667 127.274 5.692 130.622 3.832C133.97 1.93066 137.793 0.979998 142.092 0.979998C147.3 0.979998 151.681 2.24066 155.236 4.762C158.832 7.28333 161.209 10.776 162.366 15.24H150.648ZM179.585 9.97V18.774H193.783V26.958H179.585V36.506H195.643V45H168.983V1.476H195.643V9.97H179.585ZM241.462 45H230.86L213.128 18.154V45H202.526V1.476H213.128L230.86 28.446V1.476H241.462V45ZM264.895 45.434C261.712 45.434 258.86 44.9173 256.339 43.884C253.817 42.8507 251.792 41.3213 250.263 39.296C248.775 37.2707 247.989 34.832 247.907 31.98H259.191C259.356 33.592 259.914 34.832 260.865 35.7C261.815 36.5267 263.055 36.94 264.585 36.94C266.155 36.94 267.395 36.5887 268.305 35.886C269.214 35.142 269.669 34.1293 269.669 32.848C269.669 31.7733 269.297 30.8847 268.553 30.182C267.85 29.4793 266.961 28.9007 265.887 28.446C264.853 27.9913 263.365 27.4747 261.423 26.896C258.612 26.028 256.318 25.16 254.541 24.292C252.763 23.424 251.234 22.1427 249.953 20.448C248.671 18.7533 248.031 16.542 248.031 13.814C248.031 9.76333 249.498 6.60133 252.433 4.328C255.367 2.01333 259.191 0.855999 263.903 0.855999C268.697 0.855999 272.562 2.01333 275.497 4.328C278.431 6.60133 280.002 9.784 280.209 13.876H268.739C268.656 12.4707 268.139 11.3753 267.189 10.59C266.238 9.76333 265.019 9.35 263.531 9.35C262.249 9.35 261.216 9.70133 260.431 10.404C259.645 11.0653 259.253 12.0367 259.253 13.318C259.253 14.7233 259.914 15.8187 261.237 16.604C262.559 17.3893 264.626 18.2367 267.437 19.146C270.247 20.0967 272.521 21.006 274.257 21.874C276.034 22.742 277.563 24.0027 278.845 25.656C280.126 27.3093 280.767 29.438 280.767 32.042C280.767 34.522 280.126 36.7747 278.845 38.8C277.605 40.8253 275.786 42.4373 273.389 43.636C270.991 44.8347 268.16 45.434 264.895 45.434ZM316.736 1.476C321.324 1.476 325.333 2.38533 328.764 4.204C332.195 6.02266 334.84 8.58533 336.7 11.892C338.601 15.1573 339.552 18.9393 339.552 23.238C339.552 27.4953 338.601 31.2773 336.7 34.584C334.84 37.8907 332.174 40.4533 328.702 42.272C325.271 44.0907 321.283 45 316.736 45H300.43V1.476H316.736ZM316.054 35.824C320.063 35.824 323.184 34.7287 325.416 32.538C327.648 30.3473 328.764 27.2473 328.764 23.238C328.764 19.2287 327.648 16.108 325.416 13.876C323.184 11.644 320.063 10.528 316.054 10.528H311.032V35.824H316.054ZM366.061 45.434C361.969 45.434 358.207 44.4833 354.777 42.582C351.387 40.6807 348.68 38.0353 346.655 34.646C344.671 31.2153 343.679 27.3713 343.679 23.114C343.679 18.8567 344.671 15.0333 346.655 11.644C348.68 8.25467 351.387 5.60933 354.777 3.708C358.207 1.80667 361.969 0.855999 366.061 0.855999C370.153 0.855999 373.893 1.80667 377.283 3.708C380.713 5.60933 383.4 8.25467 385.343 11.644C387.327 15.0333 388.319 18.8567 388.319 23.114C388.319 27.3713 387.327 31.2153 385.343 34.646C383.359 38.0353 380.672 40.6807 377.283 42.582C373.893 44.4833 370.153 45.434 366.061 45.434ZM366.061 35.762C369.533 35.762 372.302 34.6047 374.369 32.29C376.477 29.9753 377.531 26.9167 377.531 23.114C377.531 19.27 376.477 16.2113 374.369 13.938C372.302 11.6233 369.533 10.466 366.061 10.466C362.547 10.466 359.737 11.6027 357.629 13.876C355.562 16.1493 354.529 19.2287 354.529 23.114C354.529 26.958 355.562 30.0373 357.629 32.352C359.737 34.6253 362.547 35.762 366.061 35.762ZM423.104 45.434C419.921 45.434 417.069 44.9173 414.548 43.884C412.026 42.8507 410.001 41.3213 408.472 39.296C406.984 37.2707 406.198 34.832 406.116 31.98H417.4C417.565 33.592 418.123 34.832 419.074 35.7C420.024 36.5267 421.264 36.94 422.794 36.94C424.364 36.94 425.604 36.5887 426.514 35.886C427.423 35.142 427.878 34.1293 427.878 32.848C427.878 31.7733 427.506 30.8847 426.762 30.182C426.059 29.4793 425.17 28.9007 424.096 28.446C423.062 27.9913 421.574 27.4747 419.632 26.896C416.821 26.028 414.527 25.16 412.75 24.292C410.972 23.424 409.443 22.1427 408.162 20.448C406.88 18.7533 406.24 16.542 406.24 13.814C406.24 9.76333 407.707 6.60133 410.642 4.328C413.576 2.01333 417.4 0.855999 422.112 0.855999C426.906 0.855999 430.771 2.01333 433.706 4.328C436.64 6.60133 438.211 9.784 438.418 13.876H426.948C426.865 12.4707 426.348 11.3753 425.398 10.59C424.447 9.76333 423.228 9.35 421.74 9.35C420.458 9.35 419.425 9.70133 418.64 10.404C417.854 11.0653 417.462 12.0367 417.462 13.318C417.462 14.7233 418.123 15.8187 419.446 16.604C420.768 17.3893 422.835 18.2367 425.646 19.146C428.456 20.0967 430.73 21.006 432.466 21.874C434.243 22.742 435.772 24.0027 437.054 25.656C438.335 27.3093 438.976 29.438 438.976 32.042C438.976 34.522 438.335 36.7747 437.054 38.8C435.814 40.8253 433.995 42.4373 431.598 43.636C429.2 44.8347 426.369 45.434 423.104 45.434ZM456.102 1.476V45H445.5V1.476H456.102ZM495.095 1.476V9.97H483.563V45H472.961V9.97H461.429V1.476H495.095ZM511.018 9.97V18.774H525.216V26.958H511.018V36.506H527.076V45H500.416V1.476H527.076V9.97H511.018ZM573.758 18.836V27.64H546.478V18.836H573.758ZM606.803 36.816H620.691V45H596.201V1.476H606.803V36.816ZM636.35 1.476V45H625.748V1.476H636.35ZM684.891 1.476L669.453 45H656.185L640.747 1.476H652.031L662.819 34.336L673.669 1.476H684.891ZM711.519 45L702.467 28.57H699.925V45H689.323V1.476H707.117C710.547 1.476 713.461 2.07533 715.859 3.274C718.297 4.47266 720.116 6.126 721.315 8.234C722.513 10.3007 723.113 12.6153 723.113 15.178C723.113 18.0713 722.286 20.6547 720.633 22.928C719.021 25.2013 716.623 26.8133 713.441 27.764L723.485 45H711.519ZM699.925 21.068H706.497C708.439 21.068 709.886 20.5927 710.837 19.642C711.829 18.6913 712.325 17.348 712.325 15.612C712.325 13.9587 711.829 12.6567 710.837 11.706C709.886 10.7553 708.439 10.28 706.497 10.28H699.925V21.068ZM750.352 45.434C746.26 45.434 742.498 44.4833 739.068 42.582C735.678 40.6807 732.971 38.0353 730.946 34.646C728.962 31.2153 727.97 27.3713 727.97 23.114C727.97 18.8567 728.962 15.0333 730.946 11.644C732.971 8.25467 735.678 5.60933 739.068 3.708C742.498 1.80667 746.26 0.855999 750.352 0.855999C754.444 0.855999 758.184 1.80667 761.574 3.708C765.004 5.60933 767.691 8.25467 769.634 11.644C771.618 15.0333 772.61 18.8567 772.61 23.114C772.61 27.3713 771.618 31.2153 769.634 34.646C767.65 38.0353 764.963 40.6807 761.574 42.582C758.184 44.4833 754.444 45.434 750.352 45.434ZM750.352 35.762C753.824 35.762 756.593 34.6047 758.66 32.29C760.768 29.9753 761.822 26.9167 761.822 23.114C761.822 19.27 760.768 16.2113 758.66 13.938C756.593 11.6233 753.824 10.466 750.352 10.466C746.838 10.466 744.028 11.6027 741.92 13.876C739.853 16.1493 738.82 19.2287 738.82 23.114C738.82 26.958 739.853 30.0373 741.92 32.352C744.028 34.6253 746.838 35.762 750.352 35.762ZM794.256 45.434C791.073 45.434 788.221 44.9173 785.7 43.884C783.179 42.8507 781.153 41.3213 779.624 39.296C778.136 37.2707 777.351 34.832 777.268 31.98H788.552C788.717 33.592 789.275 34.832 790.226 35.7C791.177 36.5267 792.417 36.94 793.946 36.94C795.517 36.94 796.757 36.5887 797.666 35.886C798.575 35.142 799.03 34.1293 799.03 32.848C799.03 31.7733 798.658 30.8847 797.914 30.182C797.211 29.4793 796.323 28.9007 795.248 28.446C794.215 27.9913 792.727 27.4747 790.784 26.896C787.973 26.028 785.679 25.16 783.902 24.292C782.125 23.424 780.595 22.1427 779.314 20.448C778.033 18.7533 777.392 16.542 777.392 13.814C777.392 9.76333 778.859 6.60133 781.794 4.328C784.729 2.01333 788.552 0.855999 793.264 0.855999C798.059 0.855999 801.923 2.01333 804.858 4.328C807.793 6.60133 809.363 9.784 809.57 13.876H798.1C798.017 12.4707 797.501 11.3753 796.55 10.59C795.599 9.76333 794.38 9.35 792.892 9.35C791.611 9.35 790.577 9.70133 789.792 10.404C789.007 11.0653 788.614 12.0367 788.614 13.318C788.614 14.7233 789.275 15.8187 790.598 16.604C791.921 17.3893 793.987 18.2367 796.798 19.146C799.609 20.0967 801.882 21.006 803.618 21.874C805.395 22.742 806.925 24.0027 808.206 25.656C809.487 27.3093 810.128 29.438 810.128 32.042C810.128 34.522 809.487 36.7747 808.206 38.8C806.966 40.8253 805.147 42.4373 802.75 43.636C800.353 44.8347 797.521 45.434 794.256 45.434Z" fill="black"/>
</svg>
